HIERARCHY
ROOT hips
{
  OFFSET 0 10.6860622 2.3727825e-15
  CHANNELS 6 Xposition Yposition Zposition Yrotation Xrotation Zrotation
  JOINT leftUpperLeg
  {
    OFFSET 0.6642549969 -0.9402397400000004 0
    CHANNELS 3 Yrotation Xrotation Zrotation
    JOINT leftLowerLeg
    {
      OFFSET 0 -3.997221335632195 0
      CHANNELS 3 Yrotation Xrotation Zrotation
      JOINT leftFoot
      {
        OFFSET -0.13777839790000004 -4.6145792000000005 -0.22186036399999998
        CHANNELS 3 Yrotation Xrotation Zrotation
        JOINT leftToes
        {
          OFFSET -0.03777410834999995 -0.9130806927000008 0.85230013
          CHANNELS 3 Yrotation Xrotation Zrotation
          End Site
          {
            OFFSET -0.03777410834999995 -0.9130806927000008 0.85230013
          }
        }
      }
    }
  }
  JOINT rightUpperLeg
  {
    OFFSET -0.6642778626 -0.9402397400000004 0
    CHANNELS 3 Yrotation Xrotation Zrotation
    JOINT rightLowerLeg
    {
      OFFSET 0 -3.997221452859387 0
      CHANNELS 3 Yrotation Xrotation Zrotation
      JOINT rightFoot
      {
        OFFSET 0.1377926176 -4.6145792000000005 -0.22185782299999995
        CHANNELS 3 Yrotation Xrotation Zrotation
        JOINT rightToes
        {
          OFFSET 0.037780746850000047 -0.9130806927000008 0.85230167
          CHANNELS 3 Yrotation Xrotation Zrotation
          End Site
          {
            OFFSET 0.037780746850000047 -0.9130806927000008 0.85230167
          }
        }
      }
    }
  }
  JOINT spine
  {
    OFFSET 0 0.13988381660000015 0
    CHANNELS 3 Yrotation Xrotation Zrotation
    JOINT chest
    {
      OFFSET 0 0.6191039003973773 0
      CHANNELS 3 Yrotation Xrotation Zrotation
      JOINT upperChest
      {
        OFFSET 0 0.9855186130586943 0
        CHANNELS 3 Yrotation Xrotation Zrotation
        JOINT leftShoulder
        {
          OFFSET 0.1807663869 1.5087829790000005 0
          CHANNELS 3 Yrotation Xrotation Zrotation
          JOINT leftUpperArm
          {
            OFFSET 0.5985063006419806 0 0
            CHANNELS 3 Yrotation Xrotation Zrotation
            JOINT leftLowerArm
            {
              OFFSET 2.2993332369501065 0 0
              CHANNELS 3 Yrotation Xrotation Zrotation
              JOINT leftHand
              {
                OFFSET 2.395047042602395 0 0
                CHANNELS 3 Yrotation Xrotation Zrotation
                JOINT leftIndexProximal
                {
                  OFFSET 0.5766295810000004 0.04556643899499946 0.17265095988184
                  CHANNELS 3 Yrotation Xrotation Zrotation
                  JOINT leftIndexIntermediate
                  {
                    OFFSET 0.2957229000000008 -0.019352197700001517 -0.007932640616999987
                    CHANNELS 3 Yrotation Xrotation Zrotation
                    JOINT leftIndexDistal
                    {
                      OFFSET 0.19008243099999922 -0.012484908149998475 -0.002786250786000012
                      CHANNELS 3 Yrotation Xrotation Zrotation
                      End Site
                      {
                        OFFSET 0.19008243099999922 -0.012484908149998475 -0.002786250786000012
                      }
                    }
                  }
                }
                JOINT leftMiddleProximal
                {
                  OFFSET 0.5834975091000001 0.0524350405149987 0.02204081888183999
                  CHANNELS 3 Yrotation Xrotation Zrotation
                  JOINT leftMiddleIntermediate
                  {
                    OFFSET 0.33880573540000003 -0.019871473270000717 -0.00000971183179999946
                    CHANNELS 3 Yrotation Xrotation Zrotation
                    JOINT leftMiddleDistal
                    {
                      OFFSET 0.20676022730000088 -0.012221336379999448 0.0001471936708000235
                      CHANNELS 3 Yrotation Xrotation Zrotation
                      End Site
                      {
                        OFFSET 0.20676022730000088 -0.012221336379999448 0.0001471936708000235
                      }
                    }
                  }
                }
                JOINT leftLittleProximal
                {
                  OFFSET 0.5344154683999995 -0.012880921405001189 -0.24414037221816004
                  CHANNELS 3 Yrotation Xrotation Zrotation
                  JOINT leftLittleIntermediate
                  {
                    OFFSET 0.21758961730000093 -0.011650919939999227 0.011893592810000034
                    CHANNELS 3 Yrotation Xrotation Zrotation
                    JOINT leftLittleDistal
                    {
                      OFFSET 0.1475273964999999 -0.008152365682999818 0.006001092492999946
                      CHANNELS 3 Yrotation Xrotation Zrotation
                      End Site
                      {
                        OFFSET 0.1475273964999999 -0.008152365682999818 0.006001092492999946
                      }
                    }
                  }
                }
                JOINT leftRingProximal
                {
                  OFFSET 0.5799399463000003 0.026911854694997794 -0.12150566991816003
                  CHANNELS 3 Yrotation Xrotation Zrotation
                  JOINT leftRingIntermediate
                  {
                    OFFSET 0.26167887460000006 -0.013480186499999602 0.010996293000000053
                    CHANNELS 3 Yrotation Xrotation Zrotation
                    JOINT leftRingDistal
                    {
                      OFFSET 0.17667108799999987 -0.008990287899999228 0.0055541023999999065
                      CHANNELS 3 Yrotation Xrotation Zrotation
                      End Site
                      {
                        OFFSET 0.17667108799999987 -0.008990287899999228 0.0055541023999999065
                      }
                    }
                  }
                }
                JOINT leftThumbProximal
                {
                  OFFSET 0.11018806699999972 -0.09448718900500053 0.17047963138184
                  CHANNELS 3 Yrotation Xrotation Zrotation
                  JOINT leftThumbIntermediate
                  {
                    OFFSET 0.31062601459999983 -0.08126270900000132 0.15443142000000007
                    CHANNELS 3 Yrotation Xrotation Zrotation
                    JOINT leftThumbDistal
                    {
                      OFFSET 0.21627175790000086 -0.08833193599999878 0.018771167799999988
                      CHANNELS 3 Yrotation Xrotation Zrotation
                      End Site
                      {
                        OFFSET 0.21627175790000086 -0.08833193599999878 0.018771167799999988
                      }
                    }
                  }
                }
              }
            }
          }
        }
        JOINT neck
        {
          OFFSET 0 1.5463305265074576 0
          CHANNELS 3 Yrotation Xrotation Zrotation
          JOINT head
          {
            OFFSET 0 0.8456443600000344 0
            CHANNELS 3 Yrotation Xrotation Zrotation
            JOINT leftEye
            {
              OFFSET 0.30408573140000006 0.5104519199999995 0.1276382305
              CHANNELS 3 Yrotation Xrotation Zrotation
              End Site
              {
                OFFSET 0.30408573140000006 0.5104519199999995 0.1276382305
              }
            }
            JOINT rightEye
            {
              OFFSET -0.30409491089999996 0.5104519199999995 0.1276379445
              CHANNELS 3 Yrotation Xrotation Zrotation
              End Site
              {
                OFFSET -0.30409491089999996 0.5104519199999995 0.1276379445
              }
            }
            JOINT jaw
            {
              OFFSET -3.155239131000001e-7 -0.11984121820000082 0.60178107
              CHANNELS 3 Yrotation Xrotation Zrotation
              End Site
              {
                OFFSET -3.155239131000001e-7 -0.11984121820000082 0.60178107
              }
            }
          }
        }
        JOINT rightShoulder
        {
          OFFSET -0.1807303465 1.5087829790000005 0
          CHANNELS 3 Yrotation Xrotation Zrotation
          JOINT rightUpperArm
          {
            OFFSET -0.5985063796536958 0 0
            CHANNELS 3 Yrotation Xrotation Zrotation
            JOINT rightLowerArm
            {
              OFFSET -2.2993322059002854 0 0
              CHANNELS 3 Yrotation Xrotation Zrotation
              JOINT rightHand
              {
                OFFSET -2.395045314457259 0 0
                CHANNELS 3 Yrotation Xrotation Zrotation
                JOINT rightIndexProximal
                {
                  OFFSET -0.5764487688300002 0.0441371204405987 0.17361932004999997
                  CHANNELS 3 Yrotation Xrotation Zrotation
                  JOINT rightIndexIntermediate
                  {
                    OFFSET -0.29573011380000047 -0.01934826376999843 -0.007698921482999974
                    CHANNELS 3 Yrotation Xrotation Zrotation
                    JOINT rightIndexDistal
                    {
                      OFFSET -0.19008373999999884 -0.012503266380000655 -0.0026365778999999897
                      CHANNELS 3 Yrotation Xrotation Zrotation
                      End Site
                      {
                        OFFSET -0.19008373999999884 -0.012503266380000655 -0.0026365778999999897
                      }
                    }
                  }
                }
                JOINT rightMiddleProximal
                {
                  OFFSET -0.5834852037300005 0.05211639405060153 0.02307162440000001
                  CHANNELS 3 Yrotation Xrotation Zrotation
                  JOINT rightMiddleIntermediate
                  {
                    OFFSET -0.33880114510000003 -0.019952774050000954 0.0002455003561999819
                    CHANNELS 3 Yrotation Xrotation Zrotation
                    JOINT rightMiddleDistal
                    {
                      OFFSET -0.20675694929999955 -0.012273788999999091 0.00030209124000002766
                      CHANNELS 3 Yrotation Xrotation Zrotation
                      End Site
                      {
                        OFFSET -0.20675694929999955 -0.012273788999999091 0.00030209124000002766
                      }
                    }
                  }
                }
                JOINT rightLittleProximal
                {
                  OFFSET -0.5346811737299992 -0.011214256288399227 -0.24363941305000003
                  CHANNELS 3 Yrotation Xrotation Zrotation
                  JOINT rightLittleIntermediate
                  {
                    OFFSET -0.21757715980000092 -0.011771559690000988 0.01201554387
                    CHANNELS 3 Yrotation Xrotation Zrotation
                    JOINT rightLittleDistal
                    {
                      OFFSET -0.1475201849000004 -0.00822055339600003 0.006082065407000015
                      CHANNELS 3 Yrotation Xrotation Zrotation
                      End Site
                      {
                        OFFSET -0.1475201849000004 -0.00822055339600003 0.006082065407000015
                      }
                    }
                  }
                }
                JOINT rightRingProximal
                {
                  OFFSET -0.5800810755299999 0.027657985680600072 -0.12066365025000003
                  CHANNELS 3 Yrotation Xrotation Zrotation
                  JOINT rightRingIntermediate
                  {
                    OFFSET -0.26166445029999974 -0.013623118409999302 0.011164098990000045
                    CHANNELS 3 Yrotation Xrotation Zrotation
                    JOINT rightRingDistal
                    {
                      OFFSET -0.17666387530000027 -0.009072900100000503 0.005668185599999959
                      CHANNELS 3 Yrotation Xrotation Zrotation
                      End Site
                      {
                        OFFSET -0.17666387530000027 -0.009072900100000503 0.005668185599999959
                      }
                    }
                  }
                }
                JOINT rightThumbProximal
                {
                  OFFSET -0.10997596379000074 -0.09577489355940072 0.16989765924999997
                  CHANNELS 3 Yrotation Xrotation Zrotation
                  JOINT rightThumbIntermediate
                  {
                    OFFSET -0.31036620999999986 -0.08229339117999834 0.15440884469999996
                    CHANNELS 3 Yrotation Xrotation Zrotation
                    JOINT rightThumbDistal
                    {
                      OFFSET -0.21631306399999906 -0.08825326400000111 0.018656797720000014
                      CHANNELS 3 Yrotation Xrotation Zrotation
                      End Site
                      {
                        OFFSET -0.21631306399999906 -0.08825326400000111 0.018656797720000014
                      }
                    }
                  }
                }
              }
            }
          }
        }
      }
    }
  }
}
MOTION
Frames: 6
Frame Time: 0.03333333333333333
5.366740723532839 -10.244534874498848 0.45839225961680324 0 -87.20361610732489 0 179.84990616045022 -32.275253486937125 -146.20783359152284 -168.77698116329273 58.97183773070399 -168.93574472430726 10.470677193526596 56.592724035776584 11.99912633948563 0 0 0 179.99206545280788 -33.990023000113936 136.02827618016218 -133.159647593354 46.898039617743926 -153.13032966893974 -10.492122526919736 56.618343445182354 -12.038542133654492 0 0 0 -0.005966406322863195 -12.073508701812877 0.04103874060525114 -0.7058212448435482 38.55558698046266 -0.5207470524573401 0 0 0 -23.06546720177593 17.101902482371816 4.272377824041831 -11.177995610708154 1.6757895459632361 -56.667084152453235 -28.887407430780915 8.213006630242624 -11.814399720150483 -13.595722980210834 32.32412859047749 -19.279434941804688 0 0 0 0 0 0 0 0 0 0 0 0 0 0 0 0 0 0 0 0 0 0 0 0 0 0 0 0 0 0 0 0 0 0 0 0 0 0 0 0 0 0 0 0 0 0 -3.178778356973924 0 0 -25.540586224888827 0 0 0 0 0 0 0 0 0 0 23.232963230233278 16.89986260700718 -3.8844698356514544 11.298003806910526 1.5466983821854277 56.89848476797793 28.387163582369833 8.331367312059186 11.56041591660656 13.909417138558835 32.31971553683927 19.332135491428506 0 0 0 0 0 0 0 0 0 0 0 0 0 0 0 0 0 0 0 0 0 0 0 0 0 0 0 0 0 0 0 0 0 0 0 0 0 0 0 0 0 0 0 0 0
5.366740723532839 -10.248162732830092 0.44194598640798083 0 -86.40506188705216 0 179.7080003878274 -31.553477158133184 -145.59427335036463 -167.7681096912207 59.111704388135536 -168.03671252797957 10.470677193526596 56.592724035776584 11.99912633948563 0 0 0 179.99215780323485 -33.989895315405015 136.22819353482353 -134.19595244010708 48.164987201197086 -153.2771874656771 -10.492122526919736 56.618343445182354 -12.038542133654492 0 0 0 -0.005966406322863195 -12.073508701812877 0.04103874060525114 -0.696379246635319 37.55864358068655 -0.5053191628004459 0 0 0 -23.33196015238726 17.285703657905263 2.8600124967223692 -11.104384927719765 1.7191289335059121 -55.89237778624121 -27.85505792504937 8.416427215120978 -11.31329028697156 -14.242161535521895 32.391284480072756 -19.16504742989575 0 0 0 0 0 0 0 0 0 0 0 0 0 0 0 0 0 0 0 0 0 0 0 0 0 0 0 0 0 0 0 0 0 0 0 0 0 0 0 0 0 0 0 0 0 0 -3.5617364817898376 0 0 -26.11941541192247 0 0 0 0 0 0 0 0 0 0 23.500646313659 17.085620646601065 -2.43370182713186 11.212932999065572 1.6066981666124078 56.07310226368294 27.369692593128068 8.528713248594553 11.055377321184885 14.561908673836776 32.38265423094593 19.231432176841167 0 0 0 0 0 0 0 0 0 0 0 0 0 0 0 0 0 0 0 0 0 0 0 0 0 0 0 0 0 0 0 0 0 0 0 0 0 0 0 0 0 0 0 0 0
5.366740723532839 -10.251790322769066 0.4254999815914297 0 -85.60595168535676 0 179.57604900627464 -30.829717125740345 -144.98683701467857 -166.7506936288912 59.24342819044121 -167.1291049236185 10.470677193526596 56.592724035776584 11.99912633948563 0 0 0 179.99224813150275 -33.989784106298714 136.4281255453424 -135.2670555576276 49.43378752583377 -153.46361433913455 -10.492122526919736 56.618343445182354 -12.038542133654492 0 0 0 -0.005966406322863195 -12.073508701812877 0.04103874060525114 -0.6873824689353142 36.560459567374416 -0.49027747281536976 0 0 0 -23.604017618086182 17.463571783946712 1.4420949004269201 -11.030139191546828 1.7615017354061908 -55.11702379817308 -26.818864596439006 8.61115115200544 -10.807537321872603 -14.889322536144181 32.459562903062924 -19.051396575778277 0 0 0 0 0 0 0 0 0 0 0 0 0 0 0 0 0 0 0 0 0 0 0 0 0 0 0 0 0 0 0 0 0 0 0 0 0 0 0 0 0 0 0 0 0 0 -3.9444564795057806 0 0 -26.697425848025954 0 0 0 0 0 0 0 0 0 0 23.774110595171766 17.265257179993153 -0.9770477684448334 11.126929476413439 1.6655160962591686 55.2469002766153 26.348495043239325 8.717409536432541 10.545875743846826 15.215144913515081 32.44661613213955 19.131457850997368 0 0 0 0 0 0 0 0 0 0 0 0 0 0 0 0 0 0 0 0 0 0 0 0 0 0 0 0 0 0 0 0 0 0 0 0 0 0 0 0 0 0 0 0 0
5.366740723532839 -10.255418181100309 0.40905397677487854 0 -84.8063090478034 0 179.45385178272298 -30.10416868078209 -144.38530634006045 -165.72517446423538 59.36686157023498 -166.21335993981634 10.470677193526596 56.592724035776584 11.99912633948563 0 0 0 179.99233955008634 -33.98967289733795 136.62806579792252 -136.37639179167613 50.703422072811136 -153.69313768368585 -10.492121396649596 56.618343445182354 -12.038540839093338 0 0 0 -0.005966406322863195 -12.073508701812877 0.04103874060525114 -0.6788133876200051 35.56121398742925 -0.47560384432024283 0 0 0 -23.881440328218023 17.63530134022998 0.01905136866363081 -10.955275171345239 1.8028945628776563 -54.341086410705174 -25.779101375256992 8.797024001551135 -10.29738523433074 -15.537183987047918 32.528974609883015 -18.938527004463275 0 0 0 0 0 0 0 0 0 0 0 0 0 0 0 0 0 0 0 0 0 0 0 0 0 0 0 0 0 0 0 0 0 0 0 0 0 0 0 0 0 0 0 0 0 0 -4.326931579467694 0 0 -27.274570274541897 0 0 0 0 0 0 0 0 0 0 24.053140901663472 17.438562857549783 0.48502608074059456 11.040018649747212 1.7231318428851932 54.419975665925094 25.323831959204078 8.89731131425114 10.032141181926919 15.869068633066538 32.51156300088675 19.032230920587697 0 0 0 0 0 0 0 0 0 0 0 0 0 0 0 0 0 0 0 0 0 0 0 0 0 0 0 0 0 0 0 0 0 0 0 0 0 0 0 0 0 0 0 0 0
5.366740723532839 -10.259046039431553 0.392607703566056 0 -84.00618934241551 0 179.3412012500205 -29.37698945756536 -143.78943355817879 -164.69200461433417 59.481914376795125 -165.2899305044922 10.470677193526596 56.592724035776584 11.99912633948563 0 0 0 179.99243522051464 -33.98956168852273 136.82800475541507 -137.52779135697156 51.97284095768127 -153.96962932583946 -10.492121396649596 56.618343445182354 -12.038540839093338 0 0 0 -0.005966406322863195 -12.073508701812877 0.04103874060525114 -0.6706506421845115 34.561054602578544 -0.46127603308188736 0 0 0 -24.16401431011947 17.800682706627683 -1.4086714756546146 -10.879816002479014 1.8432901803640314 -53.56465695388838 -24.736015362602398 8.973895369650037 -9.783071190040426 -16.185680751535543 32.59947773797997 -18.82644473156675 0 0 0 0 0 0 0 0 0 0 0 0 0 0 0 0 0 0 0 0 0 0 0 0 0 0 0 0 0 0 0 0 0 0 0 0 0 0 0 0 0 0 0 0 0 0 -4.709153211978579 0 0 -27.85084020670506 0 0 0 0 0 0 0 0 0 0 24.33751415724832 17.60530990342446 1.9520406933402814 10.95222911769804 1.7795229351372048 53.59242269701691 24.295966987330168 9.06827869635802 9.514422183926047 16.52363850832572 32.577497055236826 18.93376701594229 0 0 0 0 0 0 0 0 0 0 0 0 0 0 0 0 0 0 0 0 0 0 0 0 0 0 0 0 0 0 0 0 0 0 0 0 0 0 0 0 0 0 0 0 0
5.366740723532839 -10.262673629370527 0.3761616987495049 0 -83.20566100047832 0 179.23790175940064 -28.64838079594595 -143.1990052283264 -163.65167506982058 59.5884742277738 -164.35930908268878 10.470677193526596 56.592724035776584 11.99912633948563 0 0 0 179.99252802581094 -33.98945459869007 137.02795703856074 -138.72559745065573 53.24087833383677 -154.29751640313512 -10.492122526919736 56.618343445182354 -12.038542133654492 0 0 0 -0.005966406322863195 -12.073508701812877 0.04103874060525114 -0.6628791655613201 33.560124871117665 -0.44727780469790757 0 0 0 -24.45151762206457 17.959530948561145 -2.8406223031973226 -10.803777724261058 1.8826780764503945 -52.787796143443785 -23.689901172818566 9.14163370653256 -9.264852628251314 -16.834790968094026 32.67107902744205 -18.715193436200494 0 0 0 0 0 0 0 0 0 0 0 0 0 0 0 0 0 0 0 0 0 0 0 0 0 0 0 0 0 0 0 0 0 0 0 0 0 0 0 0 0 0 0 0 0 0 -5.091113571022764 0 0 -28.426200917486305 0 0 0 0 0 0 0 0 0 0 24.62697311338587 17.765291568426754 3.423503471037508 10.86358109567683 1.834667961825894 52.7643148710205 23.265165253985007 9.230179464471046 8.992962325623752 17.178817725699307 32.6444002811272 18.836097712120857 0 0 0 0 0 0 0 0 0 0 0 0 0 0 0 0 0 0 0 0 0 0 0 0 0 0 0 0 0 0 0 0 0 0 0 0 0 0 0 0 0 0 0 0 0
